<svg width="177" height="40" viewBox="0 0 177 40" fill="none" xmlns="http://www.w3.org/2000/svg">
<g clip-path="url(#clip0_17_87)">
<path d="M0.758804 19.4052C0.758804 9.10021 9.11267 0.746338 19.4177 0.746338C29.7227 0.746338 38.0766 9.10021 38.0766 19.4052C38.0766 29.7103 29.7227 38.0641 19.4177 38.0641C9.11267 38.0641 0.758804 29.7103 0.758804 19.4052Z" fill="#FF7642"/>
<path d="M14.8696 22.2041C14.8696 23.3702 16.269 25.0029 19.4177 25.0029C22.3332 25.0029 23.8492 23.6035 23.8492 21.3877C23.8492 20.2216 23.2661 18.8221 21.0504 18.3557L18.9512 17.8892C18.2515 17.7726 17.3186 17.4227 17.3186 16.723C17.3186 16.0233 17.9017 15.4402 19.0679 15.4402C20.4342 15.4402 20.92 16.0005 21.3226 16.4646C21.6072 16.7927 21.8501 17.0729 22.3332 17.0729C23.0329 17.0729 23.4994 16.723 23.4994 16.1399C23.4994 14.7405 21.167 13.6909 19.3011 13.6909C17.202 13.6909 14.9863 14.5073 14.9863 16.9563C14.9863 18.0058 15.3361 19.2886 17.5519 19.8717L20.3507 20.5714C21.167 20.8046 21.4003 21.2711 21.4003 21.7376C21.4003 22.4373 20.7005 23.2536 19.4177 23.2536C17.9148 23.2536 17.4124 22.5733 16.9961 22.0098C16.7018 21.6113 16.4505 21.2711 15.9192 21.2711C15.6859 21.2711 15.4527 21.2711 15.2195 21.5044C14.9863 21.621 14.8696 21.9708 14.8696 22.2041Z" fill="#DFDFDF"/>
<path fill-rule="evenodd" clip-rule="evenodd" d="M0.758804 19.4052C0.758804 9.10021 9.11268 0.746338 19.4177 0.746338C29.7227 0.746338 38.0766 9.10021 38.0766 19.4052C38.0766 29.7103 29.7227 38.0641 19.4177 38.0641C9.11268 38.0641 0.758804 29.7103 0.758804 19.4052ZM28.1641 19.4054C28.1641 19.8719 28.1641 20.4549 28.0475 20.9213C28.9804 22.5539 28.8638 24.5364 27.9308 26.2857C26.9979 27.9183 25.2487 28.9679 23.3828 28.9679C22.4498 28.9679 21.6335 28.7347 20.8172 28.2682C18.0183 28.7347 15.1028 27.8017 13.1203 25.8192C11.0212 23.7201 10.2049 20.8046 10.6714 18.0058C9.73843 16.3732 9.73843 14.3907 10.6714 12.758C11.6043 11.1253 13.3536 10.0758 15.2195 10.0758C16.1524 10.0758 17.0853 10.309 17.785 10.6589C20.3506 10.309 23.0329 10.8921 25.0154 12.6414C26.9979 14.3907 28.1641 16.8398 28.1641 19.4054Z" fill="#DFDFDF"/>
</g>
<circle cx="19.4177" cy="19.4052" r="18.9052" stroke="#FF7642"/>
<rect x="46.7588" y="0.746338" width="37.3178" height="37.3178" rx="18.6589" fill="#FF7642"/>
<path d="M65.4177 22.6705C63.6684 22.6705 62.1524 21.2711 62.1524 19.4052C62.1524 17.656 63.5518 16.1399 65.4177 16.1399C67.167 16.1399 68.683 17.5393 68.683 19.4052C68.683 21.1545 67.167 22.6705 65.4177 22.6705Z" fill="#DFDFDF"/>
<path fill-rule="evenodd" clip-rule="evenodd" d="M69.3827 11.4752H61.4527C60.5198 11.5918 60.0533 11.7084 59.7034 11.8251C59.237 11.9417 58.8871 12.1749 58.5372 12.5248C58.2604 12.8016 58.1296 13.0784 57.9715 13.413C57.9298 13.5012 57.8862 13.5937 57.8375 13.6909C57.8195 13.7451 57.7987 13.802 57.7763 13.863C57.6543 14.1963 57.4877 14.6516 57.4877 15.4402V23.3702C57.6043 24.3032 57.7209 24.7697 57.8375 25.1195C57.9542 25.586 58.1874 25.9358 58.5372 26.2857C58.8141 26.5625 59.0909 26.6933 59.4255 26.8514C59.5138 26.8931 59.6061 26.9367 59.7034 26.9854C59.7575 27.0034 59.8145 27.0243 59.8755 27.0466C60.2088 27.1686 60.6641 27.3353 61.4527 27.3353H69.3827C70.3157 27.2186 70.7821 27.102 71.132 26.9854C71.5985 26.8688 71.9483 26.6355 72.2982 26.2857C72.575 26.0089 72.7058 25.732 72.8639 25.3974C72.9056 25.3092 72.9492 25.2168 72.9979 25.1195C73.0159 25.0654 73.0368 25.0085 73.0591 24.9475C73.1811 24.6142 73.3477 24.1589 73.3477 23.3702V15.4402C73.2311 14.5073 73.1145 14.0408 72.9979 13.6909C72.8813 13.2245 72.648 12.8746 72.2982 12.5248C72.0213 12.2479 71.7445 12.1171 71.4099 11.959C71.3218 11.9174 71.2292 11.8736 71.132 11.8251C71.0779 11.807 71.021 11.7862 70.96 11.7639C70.6267 11.6419 70.1713 11.4752 69.3827 11.4752ZM65.4177 14.3906C62.6189 14.3906 60.4031 16.6064 60.4031 19.4052C60.4031 22.2041 62.6189 24.4198 65.4177 24.4198C68.2165 24.4198 70.4323 22.2041 70.4323 19.4052C70.4323 16.6064 68.2165 14.3906 65.4177 14.3906ZM71.7151 14.274C71.7151 14.9181 71.193 15.4402 70.5489 15.4402C69.9048 15.4402 69.3827 14.9181 69.3827 14.274C69.3827 13.63 69.9048 13.1079 70.5489 13.1079C71.193 13.1079 71.7151 13.63 71.7151 14.274Z" fill="#DFDFDF"/>
<path fill-rule="evenodd" clip-rule="evenodd" d="M46.7588 19.4052C46.7588 9.10021 55.1127 0.746338 65.4177 0.746338C75.7227 0.746338 84.0766 9.10021 84.0766 19.4052C84.0766 29.7103 75.7227 38.0641 65.4177 38.0641C55.1127 38.0641 46.7588 29.7103 46.7588 19.4052ZM61.4527 9.72593H69.3827C70.4323 9.84254 71.132 9.95916 71.7151 10.1924C72.4148 10.5423 72.8813 10.7755 73.4644 11.3586C74.0474 11.9417 74.3973 12.5248 74.6305 13.1079C74.8638 13.6909 75.097 14.3906 75.097 15.4402V23.3702C74.9804 24.4198 74.8638 25.1195 74.6305 25.7026C74.2807 26.4023 74.0474 26.8688 73.4644 27.4519C72.8813 28.035 72.2982 28.3848 71.7151 28.6181C71.132 28.8513 70.4323 29.0845 69.3827 29.0845H61.4527C60.4031 28.9679 59.7034 28.8513 59.1203 28.6181C58.4206 28.2682 57.9542 28.035 57.3711 27.4519C56.788 26.8688 56.4381 26.2857 56.2049 25.7026C55.9716 25.1195 55.7384 24.4198 55.7384 23.3702V15.4402C55.855 14.3906 55.9716 13.6909 56.2049 13.1079C56.5547 12.4081 56.788 11.9417 57.3711 11.3586C57.9542 10.7755 58.5372 10.4256 59.1203 10.1924C59.7034 9.95916 60.4031 9.72593 61.4527 9.72593Z" fill="#DFDFDF"/>
<circle cx="65.4177" cy="19.4052" r="18.9052" stroke="#FF7642"/>
<rect x="138.759" y="1.74634" width="37.3178" height="37.3178" rx="18.6589" fill="#FF7642"/>
<path fill-rule="evenodd" clip-rule="evenodd" d="M157.418 39.0641C147.113 39.0641 138.759 30.7103 138.759 20.4052C138.759 10.1002 147.113 1.74634 157.418 1.74634C167.723 1.74634 176.077 10.1002 176.077 20.4052C176.077 30.7103 167.723 39.0641 157.418 39.0641ZM158.225 15.7491C156.553 16.4442 153.213 17.8828 148.205 20.065C147.391 20.3885 146.965 20.7049 146.927 21.0143C146.861 21.5372 147.516 21.7431 148.407 22.0234C148.529 22.0616 148.654 22.1011 148.783 22.143C149.661 22.4281 150.841 22.7617 151.454 22.775C152.01 22.787 152.632 22.5576 153.317 22.0867C157.997 18.9278 160.413 17.3311 160.564 17.2966C160.671 17.2723 160.82 17.2418 160.92 17.3311C161.021 17.4204 161.011 17.5895 161 17.6349C160.935 17.9114 158.365 20.301 157.035 21.5376C156.62 21.9231 156.326 22.1965 156.266 22.259C156.131 22.3989 155.994 22.5312 155.862 22.6584C155.047 23.4441 154.436 24.0332 155.896 24.9953C156.597 25.4577 157.159 25.84 157.719 26.2214C158.331 26.638 158.941 27.0535 159.73 27.5709C159.931 27.7027 160.123 27.8397 160.31 27.973C161.022 28.4805 161.662 28.9365 162.452 28.8638C162.911 28.8215 163.385 28.3898 163.626 27.1023C164.195 24.0594 165.314 17.4666 165.573 14.7498C165.595 14.5118 165.567 14.2071 165.544 14.0734C165.521 13.9397 165.473 13.7492 165.299 13.6081C165.094 13.4411 164.776 13.4059 164.634 13.4083C163.987 13.4198 162.996 13.7645 158.225 15.7491Z" fill="#DFDFDF"/>
<circle cx="157.418" cy="20.4052" r="18.9052" stroke="#FF7642"/>
<g clip-path="url(#clip1_17_87)">
<path d="M120.566 24.1775C120.566 24.1 120.489 24.1 120.489 24.0226C120.179 23.4029 119.482 22.6284 118.552 21.7764C118.088 21.389 117.855 21.0792 117.7 20.9244C117.468 20.6145 117.468 20.3821 117.546 20.0723C117.623 19.84 117.933 19.4527 118.475 18.7555C118.785 18.3683 118.94 18.136 119.172 17.9036C120.334 16.3544 120.876 15.3475 120.721 14.8828L120.644 14.8054C120.566 14.7279 120.489 14.6504 120.334 14.6504C120.179 14.573 119.947 14.573 119.714 14.6504H116.771C116.694 14.6504 116.694 14.6504 116.539 14.6504C116.461 14.6504 116.384 14.6504 116.384 14.6504H116.306H116.229L116.151 14.7279C116.074 14.8054 116.074 14.8054 116.074 14.8828C115.764 15.7348 115.377 16.4319 114.989 17.2065C114.757 17.5937 114.525 17.981 114.292 18.2908C114.06 18.6007 113.905 18.8331 113.75 18.9879C113.595 19.1429 113.44 19.2203 113.363 19.3752C113.285 19.4527 113.13 19.5302 113.13 19.4527C113.053 19.4527 112.976 19.4527 112.976 19.3752C112.898 19.2978 112.821 19.2203 112.743 19.1429C112.666 19.0654 112.666 18.9105 112.588 18.7555C112.588 18.6007 112.588 18.4458 112.588 18.3683C112.588 18.2908 112.588 18.0584 112.588 17.9036C112.588 17.6712 112.588 17.5163 112.588 17.4389C112.588 17.2065 112.588 16.8966 112.588 16.5868C112.588 16.277 112.588 16.0446 112.588 15.8897C112.588 15.7348 112.588 15.5025 112.588 15.3475C112.588 15.1152 112.588 14.9602 112.588 14.8828C112.588 14.8054 112.511 14.6504 112.511 14.573C112.433 14.4955 112.356 14.4181 112.279 14.3406C112.201 14.2631 112.046 14.2631 111.969 14.1857C111.581 14.1083 111.117 14.0308 110.575 14.0308C109.335 14.0308 108.483 14.1083 108.173 14.2631C108.018 14.3407 107.864 14.4181 107.786 14.573C107.631 14.7279 107.631 14.8054 107.709 14.8054C108.096 14.8828 108.406 15.0377 108.561 15.2701L108.638 15.425C108.716 15.5024 108.716 15.6573 108.793 15.8897C108.87 16.1221 108.87 16.3544 108.87 16.6642C108.87 17.129 108.87 17.5937 108.87 17.9036C108.87 18.2908 108.793 18.5232 108.793 18.7555C108.793 18.9879 108.716 19.1429 108.638 19.2203C108.561 19.3752 108.561 19.4527 108.483 19.4527C108.483 19.4527 108.483 19.5302 108.406 19.5302C108.328 19.5302 108.251 19.6076 108.096 19.6076C108.018 19.6076 107.864 19.5302 107.786 19.4527C107.631 19.3752 107.476 19.2203 107.399 19.0654C107.244 18.9105 107.089 18.6781 106.934 18.3683C106.779 18.0584 106.547 17.7487 106.392 17.2839L106.237 16.9741C106.16 16.8192 106.005 16.5094 105.85 16.1221C105.695 15.7348 105.54 15.425 105.385 15.0377C105.307 14.8828 105.23 14.8054 105.153 14.7279H105.075C105.075 14.7279 104.998 14.6504 104.92 14.6504C104.843 14.6504 104.765 14.573 104.688 14.573H101.899C101.59 14.573 101.435 14.6504 101.357 14.7279L101.28 14.8054C101.28 14.8054 101.28 14.8828 101.28 14.9602C101.28 15.0378 101.28 15.1152 101.357 15.2701C101.745 16.1995 102.209 17.129 102.674 18.0584C103.139 18.9105 103.603 19.685 103.913 20.2273C104.301 20.7695 104.61 21.3116 104.998 21.7764C105.385 22.2411 105.617 22.5509 105.695 22.7058C105.85 22.8608 105.927 22.9382 106.005 23.0156L106.237 23.248C106.392 23.4029 106.624 23.6353 106.934 23.8677C107.244 24.1 107.631 24.3324 108.018 24.5648C108.406 24.7971 108.87 24.9521 109.335 25.1069C109.877 25.2619 110.342 25.3393 110.807 25.2619H111.969C112.201 25.2619 112.356 25.1845 112.511 25.0295L112.588 24.9521C112.588 24.8746 112.666 24.8746 112.666 24.7971C112.666 24.7197 112.666 24.6422 112.666 24.4874C112.666 24.1775 112.666 23.9451 112.743 23.7127C112.821 23.4804 112.821 23.3255 112.898 23.1706C112.976 23.0156 113.053 22.9382 113.13 22.8608C113.208 22.7832 113.285 22.7058 113.285 22.7058H113.363C113.518 22.6284 113.75 22.7058 113.905 22.8608C114.137 23.0156 114.37 23.248 114.525 23.4804C114.68 23.7127 114.912 23.9451 115.222 24.255C115.532 24.5648 115.764 24.7971 115.919 24.8746L116.151 25.0295C116.306 25.1069 116.461 25.1845 116.694 25.2619C116.926 25.3393 117.081 25.3393 117.236 25.3393L119.869 25.2619C120.102 25.2619 120.334 25.1845 120.489 25.1069C120.644 25.0295 120.721 24.9521 120.721 24.7971C120.721 24.7197 120.721 24.5648 120.721 24.4874C120.566 24.3324 120.566 24.255 120.566 24.1775Z" fill="#FF7642"/>
</g>
<circle cx="111.418" cy="19.4052" r="18.9052" stroke="#FF7642"/>
<defs>
<clipPath id="clip0_17_87">
<path d="M0.758804 19.4052C0.758804 9.10021 9.11267 0.746338 19.4177 0.746338C29.7227 0.746338 38.0766 9.10021 38.0766 19.4052C38.0766 29.7103 29.7227 38.0641 19.4177 38.0641C9.11267 38.0641 0.758804 29.7103 0.758804 19.4052Z" fill="white"/>
</clipPath>
<clipPath id="clip1_17_87">
<rect width="37.3178" height="37.3178" fill="white" transform="translate(92.7588 0.746338)"/>
</clipPath>
</defs>
</svg>
