<svg width="177" height="40" viewBox="0 0 177 40" fill="none" xmlns="http://www.w3.org/2000/svg">
<g clip-path="url(#clip0_21_233)">
<path d="M0.746353 19.4052C0.746353 9.10021 9.10022 0.746338 19.4052 0.746338C29.7103 0.746338 38.0641 9.10021 38.0641 19.4052C38.0641 29.7103 29.7103 38.0641 19.4052 38.0641C9.10022 38.0641 0.746353 29.7103 0.746353 19.4052Z" fill="#FF7642"/>
<path d="M14.8571 22.2041C14.8571 23.3702 16.2566 25.0029 19.4053 25.0029C22.3207 25.0029 23.8368 23.6035 23.8368 21.3877C23.8368 20.2216 23.2537 18.8221 21.038 18.3557L18.9388 17.8892C18.2391 17.7726 17.3062 17.4227 17.3062 16.723C17.3062 16.0233 17.8893 15.4402 19.0554 15.4402C20.4217 15.4402 20.9076 16.0005 21.3101 16.4646C21.5948 16.7927 21.8377 17.0729 22.3207 17.0729C23.0204 17.0729 23.4869 16.723 23.4869 16.1399C23.4869 14.7405 21.1546 13.6909 19.2887 13.6909C17.1896 13.6909 14.9738 14.5073 14.9738 16.9563C14.9738 18.0058 15.3237 19.2886 17.5394 19.8717L20.3382 20.5714C21.1545 20.8046 21.3878 21.2711 21.3878 21.7376C21.3878 22.4373 20.6881 23.2536 19.4053 23.2536C17.9024 23.2536 17.3999 22.5733 16.9836 22.0098C16.6893 21.6113 16.4381 21.2711 15.9067 21.2711C15.6735 21.2711 15.4403 21.2711 15.2071 21.5044C14.9738 21.621 14.8571 21.9708 14.8571 22.2041Z" fill="white"/>
<path fill-rule="evenodd" clip-rule="evenodd" d="M0.746353 19.4052C0.746353 9.10021 9.10022 0.746338 19.4052 0.746338C29.7103 0.746338 38.0641 9.10021 38.0641 19.4052C38.0641 29.7103 29.7103 38.0641 19.4052 38.0641C9.10022 38.0641 0.746353 29.7103 0.746353 19.4052ZM28.1516 19.4054C28.1516 19.8719 28.1516 20.4549 28.035 20.9213C28.968 22.5539 28.8513 24.5364 27.9184 26.2857C26.9854 27.9183 25.2362 28.9679 23.3703 28.9679C22.4374 28.9679 21.621 28.7347 20.8047 28.2682C18.0059 28.7347 15.0904 27.8017 13.1079 25.8192C11.0087 23.7201 10.1924 20.8046 10.6589 18.0058C9.72598 16.3732 9.72598 14.3907 10.6589 12.758C11.5919 11.1253 13.3412 10.0758 15.2071 10.0758C16.14 10.0758 17.0729 10.309 17.7726 10.6589C20.3382 10.309 23.0204 10.8921 25.0029 12.6414C26.9854 14.3907 28.1516 16.8398 28.1516 19.4054Z" fill="white"/>
</g>
<circle cx="19.4052" cy="19.4052" r="18.9052" stroke="#FF7642"/>
<rect x="46.7464" y="0.746338" width="37.3178" height="37.3178" rx="18.6589" fill="#FF7642"/>
<path d="M65.4053 22.6705C63.656 22.6705 62.14 21.2711 62.14 19.4052C62.14 17.656 63.5394 16.1399 65.4053 16.1399C67.1545 16.1399 68.6706 17.5393 68.6706 19.4052C68.6706 21.1545 67.1545 22.6705 65.4053 22.6705Z" fill="white"/>
<path fill-rule="evenodd" clip-rule="evenodd" d="M69.3703 11.4752H61.4403C60.5073 11.5918 60.0408 11.7084 59.691 11.8251C59.2245 11.9417 58.8747 12.1749 58.5248 12.5248C58.248 12.8016 58.1172 13.0784 57.9591 13.413C57.9174 13.5012 57.8737 13.5937 57.8251 13.6909C57.8071 13.7451 57.7862 13.802 57.7639 13.863C57.6419 14.1963 57.4752 14.6516 57.4752 15.4402V23.3702C57.5919 24.3032 57.7085 24.7697 57.8251 25.1195C57.9417 25.586 58.1749 25.9358 58.5248 26.2857C58.8016 26.5625 59.0785 26.6933 59.4131 26.8514C59.5013 26.8931 59.5936 26.9367 59.691 26.9854C59.7451 27.0034 59.802 27.0243 59.863 27.0466C60.1963 27.1686 60.6516 27.3353 61.4403 27.3353H69.3703C70.3032 27.2186 70.7697 27.102 71.1196 26.9854C71.586 26.8688 71.9359 26.6355 72.2857 26.2857C72.5626 26.0089 72.6934 25.732 72.8515 25.3974C72.8932 25.3092 72.9368 25.2168 72.9854 25.1195C73.0035 25.0654 73.0243 25.0085 73.0466 24.9475C73.1686 24.6142 73.3353 24.1589 73.3353 23.3702V15.4402C73.2187 14.5073 73.1021 14.0408 72.9854 13.6909C72.8688 13.2245 72.6356 12.8746 72.2857 12.5248C72.0089 12.2479 71.7321 12.1171 71.3974 11.959C71.3093 11.9174 71.2167 11.8736 71.1196 11.8251C71.0654 11.807 71.0085 11.7862 70.9475 11.7639C70.6142 11.6419 70.1589 11.4752 69.3703 11.4752ZM65.4053 14.3906C62.6064 14.3906 60.3907 16.6064 60.3907 19.4052C60.3907 22.2041 62.6064 24.4198 65.4053 24.4198C68.2041 24.4198 70.4198 22.2041 70.4198 19.4052C70.4198 16.6064 68.2041 14.3906 65.4053 14.3906ZM71.7026 14.274C71.7026 14.9181 71.1805 15.4402 70.5365 15.4402C69.8924 15.4402 69.3703 14.9181 69.3703 14.274C69.3703 13.63 69.8924 13.1079 70.5365 13.1079C71.1805 13.1079 71.7026 13.63 71.7026 14.274Z" fill="white"/>
<path fill-rule="evenodd" clip-rule="evenodd" d="M46.7464 19.4052C46.7464 9.10021 55.1002 0.746338 65.4053 0.746338C75.7103 0.746338 84.0642 9.10021 84.0642 19.4052C84.0642 29.7103 75.7103 38.0641 65.4053 38.0641C55.1002 38.0641 46.7464 29.7103 46.7464 19.4052ZM61.4403 9.72593H69.3703C70.4198 9.84254 71.1196 9.95916 71.7026 10.1924C72.4024 10.5423 72.8688 10.7755 73.4519 11.3586C74.035 11.9417 74.3849 12.5248 74.6181 13.1079C74.8513 13.6909 75.0846 14.3906 75.0846 15.4402V23.3702C74.9679 24.4198 74.8513 25.1195 74.6181 25.7026C74.2682 26.4023 74.035 26.8688 73.4519 27.4519C72.8688 28.035 72.2857 28.3848 71.7026 28.6181C71.1196 28.8513 70.4198 29.0845 69.3703 29.0845H61.4403C60.3907 28.9679 59.691 28.8513 59.1079 28.6181C58.4082 28.2682 57.9417 28.035 57.3586 27.4519C56.7755 26.8688 56.4257 26.2857 56.1924 25.7026C55.9592 25.1195 55.726 24.4198 55.726 23.3702V15.4402C55.8426 14.3906 55.9592 13.6909 56.1924 13.1079C56.5423 12.4081 56.7755 11.9417 57.3586 11.3586C57.9417 10.7755 58.5248 10.4256 59.1079 10.1924C59.691 9.95916 60.3907 9.72593 61.4403 9.72593Z" fill="white"/>
<circle cx="65.4053" cy="19.4052" r="18.9052" stroke="#FF7642"/>
<rect x="138.746" y="1.74634" width="37.3178" height="37.3178" rx="18.6589" fill="#FF7642"/>
<path fill-rule="evenodd" clip-rule="evenodd" d="M157.405 39.0641C147.1 39.0641 138.746 30.7103 138.746 20.4052C138.746 10.1002 147.1 1.74634 157.405 1.74634C167.71 1.74634 176.064 10.1002 176.064 20.4052C176.064 30.7103 167.71 39.0641 157.405 39.0641ZM158.212 15.7491C156.541 16.4442 153.201 17.8828 148.192 20.065C147.379 20.3885 146.953 20.7049 146.914 21.0143C146.849 21.5372 147.503 21.7431 148.395 22.0234C148.516 22.0616 148.642 22.1011 148.771 22.143C149.648 22.4281 150.828 22.7617 151.442 22.775C151.998 22.787 152.619 22.5576 153.305 22.0867C157.985 18.9278 160.4 17.3311 160.552 17.2966C160.659 17.2723 160.807 17.2418 160.908 17.3311C161.008 17.4204 160.998 17.5895 160.988 17.6349C160.923 17.9114 158.353 20.301 157.022 21.5376C156.608 21.9231 156.314 22.1965 156.253 22.259C156.119 22.3989 155.982 22.5312 155.85 22.6584C155.035 23.444 154.423 24.0332 155.883 24.9953C156.585 25.4577 157.146 25.84 157.707 26.2214C158.318 26.638 158.928 27.0535 159.718 27.5709C159.919 27.7027 160.111 27.8397 160.298 27.973C161.01 28.4805 161.649 28.9365 162.439 28.8638C162.899 28.8215 163.373 28.3898 163.614 27.1023C164.183 24.0594 165.302 17.4666 165.56 14.7498C165.583 14.5118 165.554 14.2071 165.531 14.0734C165.509 13.9397 165.461 13.7492 165.287 13.6081C165.081 13.4411 164.763 13.4059 164.621 13.4083C163.975 13.4198 162.983 13.7645 158.212 15.7491Z" fill="white"/>
<circle cx="157.405" cy="20.4052" r="18.9052" stroke="#FF7642"/>
<g clip-path="url(#clip1_21_233)">
<path d="M120.554 24.1775C120.554 24.0999 120.476 24.0999 120.476 24.0225C120.167 23.4028 119.469 22.6283 118.54 21.7763C118.075 21.389 117.843 21.0792 117.688 20.9243C117.456 20.6145 117.456 20.3821 117.533 20.0722C117.611 19.8399 117.92 19.4527 118.463 18.7555C118.772 18.3682 118.927 18.1359 119.16 17.9035C120.321 16.3544 120.864 15.3474 120.709 14.8827L120.631 14.8053C120.554 14.7279 120.476 14.6503 120.321 14.6503C120.167 14.5729 119.934 14.5729 119.702 14.6503H116.758C116.681 14.6503 116.681 14.6503 116.526 14.6503C116.449 14.6503 116.371 14.6503 116.371 14.6503H116.294H116.216L116.139 14.7279C116.061 14.8053 116.061 14.8053 116.061 14.8827C115.752 15.7348 115.364 16.4319 114.977 17.2064C114.745 17.5937 114.512 17.9809 114.28 18.2908C114.048 18.6006 113.893 18.833 113.738 18.9879C113.583 19.1428 113.428 19.2203 113.35 19.3751C113.273 19.4527 113.118 19.5301 113.118 19.4527C113.041 19.4527 112.963 19.4527 112.963 19.3751C112.886 19.2977 112.808 19.2203 112.731 19.1428C112.653 19.0653 112.653 18.9104 112.576 18.7555C112.576 18.6006 112.576 18.4457 112.576 18.3682C112.576 18.2908 112.576 18.0584 112.576 17.9035C112.576 17.6711 112.576 17.5162 112.576 17.4388C112.576 17.2064 112.576 16.8966 112.576 16.5868C112.576 16.2769 112.576 16.0445 112.576 15.8897C112.576 15.7348 112.576 15.5024 112.576 15.3474C112.576 15.1151 112.576 14.9602 112.576 14.8827C112.576 14.8053 112.498 14.6503 112.498 14.5729C112.421 14.4955 112.344 14.418 112.266 14.3405C112.189 14.2631 112.034 14.2631 111.956 14.1856C111.569 14.1082 111.104 14.0308 110.562 14.0308C109.323 14.0308 108.471 14.1082 108.161 14.2631C108.006 14.3406 107.851 14.418 107.774 14.5729C107.619 14.7279 107.619 14.8053 107.696 14.8053C108.083 14.8827 108.393 15.0376 108.548 15.27L108.626 15.425C108.703 15.5024 108.703 15.6573 108.781 15.8897C108.858 16.1221 108.858 16.3544 108.858 16.6642C108.858 17.129 108.858 17.5937 108.858 17.9035C108.858 18.2908 108.781 18.5232 108.781 18.7555C108.781 18.9879 108.703 19.1428 108.626 19.2203C108.548 19.3751 108.548 19.4527 108.471 19.4527C108.471 19.4527 108.471 19.5301 108.393 19.5301C108.316 19.5301 108.238 19.6075 108.083 19.6075C108.006 19.6075 107.851 19.5301 107.774 19.4527C107.619 19.3751 107.464 19.2203 107.386 19.0653C107.231 18.9104 107.076 18.678 106.922 18.3682C106.767 18.0584 106.534 17.7486 106.379 17.2838L106.225 16.974C106.147 16.8191 105.992 16.5093 105.837 16.1221C105.682 15.7348 105.527 15.425 105.372 15.0377C105.295 14.8827 105.218 14.8053 105.14 14.7279H105.063C105.063 14.7279 104.985 14.6503 104.908 14.6503C104.83 14.6503 104.753 14.5729 104.675 14.5729H101.887C101.577 14.5729 101.422 14.6503 101.345 14.7279L101.267 14.8053C101.267 14.8053 101.267 14.8827 101.267 14.9602C101.267 15.0377 101.267 15.1151 101.345 15.27C101.732 16.1995 102.197 17.129 102.662 18.0584C103.126 18.9104 103.591 19.685 103.901 20.2272C104.288 20.7694 104.598 21.3116 104.985 21.7763C105.372 22.241 105.605 22.5509 105.682 22.7057C105.837 22.8607 105.915 22.9381 105.992 23.0156L106.225 23.248C106.379 23.4028 106.612 23.6352 106.922 23.8676C107.231 24.0999 107.619 24.3323 108.006 24.5647C108.393 24.797 108.858 24.952 109.323 25.1069C109.865 25.2618 110.33 25.3393 110.794 25.2618H111.956C112.189 25.2618 112.344 25.1844 112.498 25.0294L112.576 24.952C112.576 24.8746 112.653 24.8746 112.653 24.797C112.653 24.7196 112.653 24.6422 112.653 24.4873C112.653 24.1775 112.653 23.9451 112.731 23.7127C112.808 23.4804 112.808 23.3254 112.886 23.1705C112.963 23.0156 113.041 22.9381 113.118 22.8607C113.196 22.7832 113.273 22.7057 113.273 22.7057H113.35C113.505 22.6283 113.738 22.7057 113.893 22.8607C114.125 23.0156 114.357 23.248 114.512 23.4804C114.667 23.7127 114.9 23.9451 115.209 24.2549C115.519 24.5647 115.752 24.797 115.907 24.8746L116.139 25.0294C116.294 25.1069 116.449 25.1844 116.681 25.2618C116.913 25.3393 117.068 25.3393 117.223 25.3393L119.857 25.2618C120.089 25.2618 120.321 25.1844 120.476 25.1069C120.631 25.0294 120.709 24.952 120.709 24.797C120.709 24.7196 120.709 24.5647 120.709 24.4873C120.554 24.3323 120.554 24.2549 120.554 24.1775Z" fill="#FF7642"/>
</g>
<circle cx="111.405" cy="19.4052" r="18.9052" stroke="#FF7642"/>
<defs>
<clipPath id="clip0_21_233">
<path d="M0.746353 19.4052C0.746353 9.10021 9.10022 0.746338 19.4052 0.746338C29.7103 0.746338 38.0641 9.10021 38.0641 19.4052C38.0641 29.7103 29.7103 38.0641 19.4052 38.0641C9.10022 38.0641 0.746353 29.7103 0.746353 19.4052Z" fill="white"/>
</clipPath>
<clipPath id="clip1_21_233">
<rect width="37.3178" height="37.3178" fill="white" transform="translate(92.7464 0.746338)"/>
</clipPath>
</defs>
</svg>
