<svg width="260" height="260" viewBox="0 0 260 260" fill="none" xmlns="http://www.w3.org/2000/svg">
<path fill-rule="evenodd" clip-rule="evenodd" d="M238.001 201.828C235.807 205.129 233.487 208.297 231.053 211.33L48.4516 28.7285C51.5233 26.2563 54.6928 23.9376 57.9482 21.7751L238.001 201.828ZM38.9958 37.1365C41.7853 34.3995 44.6807 31.8072 47.6709 29.3619L230.421 212.112C227.947 215.147 225.357 218.044 222.662 220.802L38.9958 37.1365ZM250.749 177.434C252.185 173.79 253.445 170.106 254.533 166.392L93.4341 5.29315C89.6986 6.38309 86.0094 7.64076 82.3787 9.06362L250.749 177.434ZM81.3662 9.46531C77.534 11.0043 73.7687 12.7281 70.085 14.6338L245.157 189.706C247.08 186.007 248.809 182.249 250.345 178.444L81.3662 9.46531ZM259.279 119.17C259.702 124.218 259.832 129.297 259.663 134.38L125.429 0.145462C130.478 -0.0315501 135.547 0.0849627 140.609 0.500537L259.279 119.17ZM109.16 1.74097C114.091 0.943205 119.069 0.42783 124.069 0.200228L259.61 135.741C259.392 140.724 258.886 145.708 258.087 150.667L109.16 1.74097ZM242.489 65.2378C232.695 48.1575 218.855 33.0543 201.288 21.4854C199.094 20.0408 196.873 18.6714 194.628 17.3765L242.489 65.2378ZM191.427 15.5904C182.577 10.8124 173.373 7.16424 163.996 4.60878L255.144 95.7566C252.568 86.2993 248.923 77.1196 244.252 68.415L191.427 15.5904ZM38.2847 37.8396C35.5544 40.5604 32.9278 43.4214 30.4158 46.4204L213.395 229.4C216.35 226.917 219.209 224.288 221.96 221.515L38.2847 37.8396ZM58.8009 21.2136C62.1671 19.0156 65.6232 16.9832 69.1561 15.1191L244.67 190.633C242.811 194.138 240.776 197.59 238.563 200.976L58.8009 21.2136ZM107.948 1.94296C103.427 2.71814 98.9487 3.73113 94.5329 4.97775L254.849 165.294C256.106 160.857 257.116 156.379 257.885 151.88L107.948 1.94296ZM142.16 0.637246C148.836 1.26613 155.494 2.41643 162.074 4.10086L255.652 97.6787C257.327 104.221 258.494 110.888 259.139 117.616L142.16 0.637246ZM212.624 230.043L29.7739 47.1928C27.3039 50.1883 24.9473 53.3192 22.7146 56.5833L203.241 237.11C206.46 234.908 209.591 232.552 212.624 230.043ZM202.399 237.682C199.074 239.918 195.658 241.99 192.164 243.896L15.9179 67.6505C17.6126 64.5579 19.4461 61.5093 21.4198 58.5123C21.6594 58.1486 21.9004 57.7864 22.143 57.4259L202.399 237.682ZM191.245 244.392L15.4203 68.5671C13.4555 72.2213 11.683 75.9355 10.1003 79.6969L180.096 249.692C183.885 248.107 187.607 246.339 191.245 244.392ZM151.271 258.01C146.368 258.831 141.415 259.372 136.439 259.628L0.160805 123.349C0.407749 118.392 0.939864 113.434 1.76235 108.501L151.271 258.01ZM152.478 257.802L1.9695 107.294C2.76016 102.814 3.79106 98.3571 5.06608 93.9411L165.833 254.708C161.438 255.973 156.979 257.006 152.478 257.802ZM166.927 254.388L5.38699 92.8478C6.60796 88.7551 8.03957 84.6994 9.68491 80.6958L179.095 250.106C175.107 251.735 171.046 253.164 166.927 254.388ZM70.0344 245.191C78.7029 249.704 87.6959 253.147 96.8467 255.554L4.29444 163.001C6.72122 172.229 10.1618 181.201 14.5786 189.735L70.0344 245.191ZM3.81042 161.103L98.7447 256.037C105.265 257.646 111.859 258.733 118.467 259.309L0.512705 141.355C1.1052 148.015 2.20873 154.619 3.81042 161.103ZM0.384725 139.813L120.006 259.435C125.037 259.813 130.073 259.897 135.088 259.691L0.100451 124.703C-0.0981914 129.751 -0.00160496 134.797 0.384725 139.813ZM66.9753 243.546L16.2027 192.774C26.0467 210.615 40.2469 226.394 58.4467 238.38C61.2466 240.224 64.0916 241.946 66.9753 243.546Z" fill="url(#paint0_linear_20_224)" fill-opacity="0.4"/>
<defs>
<linearGradient id="paint0_linear_20_224" x1="258.338" y1="58.6931" x2="326.521" y2="387.375" gradientUnits="userSpaceOnUse">
<stop offset="0.14" stop-color="#FF7642"/>
<stop offset="0.530952" stop-color="#4A89E6"/>
<stop offset="0.811014" stop-color="#5D5757"/>
</linearGradient>
</defs>
</svg>
